<svg xmlns="http://www.w3.org/2000/svg" width="38" height="38" viewBox="0 0 68 48">
  <path fill-rule="evenodd" d="M67.945 29.919c.007.114.036.228.055.342v1.145c-.018.096-.046.192-.052.29a6.639 6.639 0 0 1-.758 2.733c-.695 1.339-1.799 2.208-3.185 2.742a8.056 8.056 0 0 1-2.84.555c-1.73.016-3.462.014-5.194.018-.071 0-.143-.009-.233-.015V23.627c.089-.005.168-.014.247-.014 1.469 0 2.938-.003 4.406.005.825.004 1.65.03 2.46.214 1.925.437 3.414 1.47 4.349 3.236.47.887.68 1.852.745 2.85zm-3.92 2.562c.312-.922.38-1.865.168-2.819-.306-1.374-1.126-2.264-2.493-2.632-.666-.18-1.342-.19-2.023-.128-.124.01-.247.036-.381.056v7.52c.582 0 1.134.006 1.686-.004.262-.005.526-.023.783-.07 1.119-.205 1.89-.834 2.26-1.923zm3.65 7.698c.206.043.268.143.271.375.003.25-.06.349-.272.404-.07.018-.143.024-.215.027-.09.005-.181.002-.272.002H1.013l-.3-.001c-.28-.004-.54-.06-.713-.311v-.218c.176-.249.433-.309.715-.31l.245-.001 66.283.001c.144 0 .291.003.432.032zM55.062 43.28c.3-.19 1.214-.201 1.588-.025-.52.126-.622.26-.62.808.002.663.005 1.326 0 1.989-.002.18-.018.363-.054.54-.103.51-.404.864-.886 1.056-.209.083-.424.15-.636.224h-.544c-.08-.036-.158-.079-.241-.107-.805-.268-1.133-.782-1.12-1.509.014-.744.003-1.49.002-2.234 0-.091-.002-.182-.007-.273-.01-.204-.108-.34-.308-.399-.099-.028-.197-.06-.345-.104.251-.07 1.412-.086 1.815-.039-.038.11-.143.101-.217.128-.326.12-.39.19-.392.533-.005.763-.013 1.526.002 2.29.02 1.059 1.109 1.662 2.036 1.138.352-.2.55-.517.566-.908a67.76 67.76 0 0 0 .044-2.56c.001-.304-.132-.43-.438-.495l-.245-.053zM29.965 26.834c-1.25 1.03-1.895 2.369-1.863 3.975.037 1.813.908 3.196 2.46 4.106 2.837 1.665 6.576-.094 7.147-3.336.234-1.33-.04-2.554-.8-3.653-.355-.513-.793-.967-1.191-1.45-.127-.153-.265-.301-.368-.47-.692-1.14.161-2.331 1.284-2.398a1.76 1.76 0 0 1 1.174.343c1.814 1.307 2.856 3.073 3.159 5.287.19 1.39.123 2.76-.358 4.085-.869 2.388-2.551 3.965-4.91 4.837-1.059.39-2.155.572-3.284.479-1.795-.149-3.391-.808-4.788-1.941-1.176-.953-2.044-2.13-2.512-3.583-.241-.748-.392-1.744-.394-2.233.004-2.019.494-3.543 1.428-4.928.33-.49.696-.951 1.129-1.358.152-.142.294-.296.436-.449a1.738 1.738 0 0 1 2.3-.245c.506.355.764.862.826 1.47a1.24 1.24 0 0 1-.378 1.04c-.153.153-.329.284-.497.422zM3.433 36.88C1.735 35.79.768 34.173.408 32.215c-.41-2.23.061-4.302 1.368-6.158.935-1.329 2.217-2.177 3.794-2.562a8.58 8.58 0 0 1 4.435.076c1.712.486 3.018 1.536 4.021 2.989.36.52.655 1.068.788 1.692.047.219.072.443.113.708H14.6c-1.025-.002-2.05-.012-3.074 0-.254.002-.394-.093-.517-.305-.616-1.064-1.517-1.745-2.734-1.967-1.284-.235-2.918.183-3.702 1.466-.874 1.432-1.054 2.962-.408 4.539.463 1.129 1.337 1.78 2.515 2.034.738.158 1.476.17 2.204-.061.8-.255 1.41-.767 1.892-1.442.116-.163.219-.334.323-.504a.428.428 0 0 1 .402-.224c1.052.006 2.103.001 3.155.003.077 0 .155.016.258.028-.07.393-.152.757-.306 1.091-1.095 2.367-2.866 3.94-5.453 4.431-2.044.388-3.974-.048-5.721-1.17zm42.65-13.297v.354l-.001 8.804c0 .347.032.689.146 1.02.244.71.81 1.134 1.557 1.136.268 0 .544-.032.805-.096.664-.161 1.07-.644 1.139-1.328a8.93 8.93 0 0 0 .046-.87c.004-2.871.003-5.742.004-8.613v-.32c.212-.058 3.361-.07 3.692-.015.005.083.014.171.014.26v9.075c0 .65-.092 1.287-.308 1.9-.498 1.412-1.441 2.414-2.846 2.918-1.59.57-3.212.581-4.79-.032-1.726-.671-2.73-1.976-3.035-3.81a4.939 4.939 0 0 1-.055-.788c-.01-3.107-.017-6.214-.024-9.321v-.274h3.655zm-29.31.013h3.78v10.982h4.079c.06.212.08 2.723.03 3.166-.198.056-7.306.082-7.87.028-.057-.187-.08-13.769-.02-14.176zm14.564 5.428v-2.042-1.526c0-1.153-.001-2.306.002-3.46.001-.161.015-.326.047-.485.089-.432.347-.734.75-.903a2.1 2.1 0 0 1 1.74.015c.557.252.858.673.85 1.301-.01.627-.009 1.253-.01 1.88l-.002 4.821c0 .145.002.292-.011.436-.05.524-.29.932-.758 1.185-.6.324-1.216.402-1.841.061-.506-.276-.768-.701-.767-1.283zm35.548 17.98c.033.398.096.466.493.555.041.009.076.05.114.075l-.012.039h-1.576c.018-.03.026-.058.041-.063.296-.097.396-.325.409-.61.004-.1 0-.2 0-.3l-.011-2.154v-.504c-.079.028-.15.032-.174.068-.06.089-.104.19-.146.29-.43 1.001-.86 2.002-1.286 3.004-.062.145-.132.278-.287.355-.144-.081-.2-.226-.262-.365l-1.24-2.756c-.044-.1-.09-.2-.146-.292-.022-.036-.077-.051-.148-.095-.01.114-.023.191-.024.27a890.05 890.05 0 0 0-.035 2.425c0 .082.001.164.01.245.019.195.125.313.317.357.071.016.14.043.266.082-.26.072-1.125.085-1.504.038.046-.087.119-.102.197-.12.278-.069.38-.184.406-.47.021-.244.03-.49.04-.734.03-.736.058-1.471.085-2.206.003-.082-.002-.164-.002-.246 0-.258-.126-.427-.362-.52-.098-.04-.196-.08-.29-.12.007-.034.006-.06.016-.065.509-.26 1.007-.118 1.267.38.16.304.293.623.435.938l.97 2.16c.036.082.076.16.141.297.083-.172.148-.295.202-.423.422-.984.842-1.97 1.262-2.955.04-.091.066-.196.129-.268.065-.077.164-.168.254-.174.313-.021.628-.008.964.04-.039.037-.072.085-.118.109-.055.029-.12.037-.181.056-.24.079-.308.157-.308.415 0 .39.013.781.024 1.172.017.6.038 1.198.058 1.798.002.09.005.182.012.272zm-54.331.059c.012.327.102.414.43.49.06.014.112.054.167.082l-.017.05h-1.628c.073-.05.096-.075.124-.085.255-.092.375-.292.377-.546.008-.99.003-1.978.003-2.968l-.06-.044c-.047.028-.11.046-.137.087-.054.082-.092.176-.131.268-.421.984-.842 1.97-1.26 2.955-.069.16-.144.311-.338.422-.08-.13-.174-.25-.235-.385-.418-.917-.828-1.837-1.244-2.754-.05-.11-.12-.211-.182-.316l-.057.017c-.011.077-.029.155-.032.233-.028.808-.054 1.616-.079 2.424-.002.064 0 .128.007.19.024.208.111.306.312.362.059.016.117.035.174.058.01.004.012.031.017.048-.175.066-1.102.077-1.464.003.116-.05.18-.086.25-.106.274-.08.378-.18.39-.449.048-1.062.085-2.124.13-3.186a.529.529 0 0 0-.29-.514l-.306-.183c.474-.25.99-.112 1.242.33.076.133.129.28.191.42l1.279 2.888c.01.023.031.043.072.097.049-.1.092-.181.128-.265.42-.975.857-1.944 1.25-2.93.186-.464.458-.7.963-.627.147.02.305-.034.487.091-.109.05-.184.088-.262.119-.338.13-.388.187-.378.537.03 1.063.067 2.125.107 3.187zm26.517.057c.073.116.203.202.32.281.133.09.28.156.42.231-.017.04-.024.07-.031.07-.316.004-.631.015-.947.004-.141-.005-.203-.138-.265-.25-.237-.428-.471-.859-.707-1.288-.053-.096-.11-.188-.16-.285-.11-.21-.279-.301-.514-.266-.088.013-.177.024-.301.041v.382c.002.327.018.654.001.98-.014.287.136.436.37.539.061.027.125.052.208.086-.228.07-1.413.073-1.675.005.066-.03.108-.057.154-.07.25-.075.362-.257.391-.503.01-.08.01-.163.01-.245l-.003-2.78-.003-.217c-.003-.243-.102-.418-.342-.5-.075-.025-.146-.064-.287-.127.128-.037.196-.073.265-.075.561-.014 1.123-.034 1.685-.026.213.002.434.048.638.115.6.197.86.741.667 1.346-.102.318-.308.551-.583.729-.09.058-.183.112-.306.187.343.568.66 1.108.995 1.636zm-1.402-1.804c.484-.128.776-.583.713-1.106-.065-.534-.439-.875-.964-.877-.367-.001-.518.134-.525.5-.01.462-.006.925-.006 1.388 0 .043.013.086.021.137.264.024.514.023.761-.042zm-16.926-2.15c1.087.167 1.242 1.196.926 1.833-.278.56-.763.8-1.362.843-.162.011-.326.002-.49.002h-.28c0 .457-.015.881.005 1.304.012.245.235.325.427.407.08.035.169.049.272.077-.183.078-1.39.098-1.793.035.023-.113.127-.123.2-.15.237-.088.334-.259.334-.503-.001-1.035-.002-2.07 0-3.104 0-.283-.105-.49-.382-.593-.064-.023-.12-.067-.227-.128.111-.022.169-.043.227-.043.607-.007 1.213-.011 1.82-.012.108 0 .216.016.323.033zm.406 1.503c.17-.813-.443-1.456-1.252-1.313-.219.039-.357.167-.36.375-.007.588-.002 1.176-.002 1.781.795.282 1.451-.068 1.614-.843zm9.128 2.047c.03-.042.05-.093.115-.116.026.38-.065.723-.12 1.088h-3.296c.053-.123.146-.126.228-.151.384-.118.431-.177.432-.577.003-.972-.008-1.944.007-2.916.006-.369-.085-.644-.467-.755-.015-.004-.025-.024-.037-.036.283-.14 2.52-.198 3.069-.068l-.046 1.005-.072.02c-.053-.086-.112-.17-.157-.26-.048-.096-.077-.203-.126-.3-.069-.137-.183-.237-.336-.247a7.921 7.921 0 0 0-.921-.027c-.243.012-.308.096-.347.342-.018.115-.02.235-.021.352-.003.354-.001.708-.001 1.101.273.004.532.01.79.011.262.002.524 0 .806 0v.338h-1.536c-.017.08-.036.133-.036.184.002.464.001.927.013 1.39.006.252.096.349.344.358.289.01.579-.002.868-.005.228-.002.394-.114.523-.294.107-.147.218-.29.324-.437zm16.17.838c.088.018.088.018.19.13h-1.69l-.014-.053c.068-.026.135-.059.205-.076a.437.437 0 0 0 .357-.395c.016-.116.029-.234.03-.351.001-.908 0-1.815-.001-2.723 0-.045-.003-.09-.001-.136.014-.326-.097-.567-.44-.652-.024-.007-.045-.026-.068-.04l.004-.055a3.42 3.42 0 0 1 1.557.025c-.04.017-.078.038-.118.052-.255.089-.366.28-.388.537a1.876 1.876 0 0 0-.007.163V47c0 .046.001.091.005.136.025.265.113.361.379.417zm-44.921-.56c.001.107.02.218.05.32.043.145.16.21.304.238.08.015.16.046.293.086-.312.09-1.605.079-1.813-.01.091-.029.154-.058.22-.068.231-.036.347-.183.386-.399.018-.097.019-.198.02-.298 0-1.035-.004-2.07.003-3.105.001-.218-.07-.367-.27-.453-.056-.024-.108-.053-.161-.08l.011-.033h1.498l.017.04c-.056.03-.108.073-.168.088-.3.076-.393.282-.39.57.005.671.002 1.343.001 2.015 0 .363-.006.726-.001 1.09zm12.242-31.155V.354c0-.118-.003-.236-.005-.354h5.223c.106.011.213.031.32.032 4.724.015 9.447.026 14.17.044C40.348.1 47.219.13 54.091.157h.264c.064.22.092 18.235.03 18.91-.099-.075-.182-.136-.262-.2-1.05-.849-2.18-1.565-3.436-2.069-2.374-.952-4.768-.947-7.178-.146l-.464.159c-.062-.085-.126-.17-.184-.257a16.922 16.922 0 0 0-2.248-2.761c-1.984-1.945-4.345-3.143-7.08-3.61-1.205-.205-2.414-.27-3.63-.142a12.514 12.514 0 0 0-5.023 1.65 15.78 15.78 0 0 0-5.358 5.088l-.201.308c-.921-.231-1.814-.516-2.728-.667-.917-.152-1.856-.171-2.825-.251v-.331z">
  </path>
</svg>