<svg id="Ebene_1" data-name="Ebene 1" xmlns="http://www.w3.org/2000/svg" viewBox="0 0 512 512"><defs><style>.cls-1{fill:#060607;}</style></defs><path class="cls-1" d="M1,93a7.19,7.19,0,0,0,.81-2,55.53,55.53,0,0,1,6.8-23.32c1.65-3,3.24-6.06,5-9C20.79,46.82,30.7,37.8,42.68,31A77.94,77.94,0,0,1,82,20.77q128,.21,256,.06c2.89,0,5.79-.19,9.18-.32-2,3.46-5.11,5.63-7.61,8.31s-5.41,5.43-8.13,8.14l-8.49,8.47-8.13,8.13c-2.71,2.71-5.44,5.4-8.14,8.13s-5.34,5.49-8.12,8.35h-5q-94.74,0-189.47.09c-7.47,0-15,.74-22.1,3.74C71.53,78.26,63,84.71,57.5,94.78A53.39,53.39,0,0,0,50.81,121q.11,145.49,0,291c0,10.66,2.48,20.5,8.7,29.18,7.67,10.7,17.7,17.83,31,20.12a56.6,56.6,0,0,0,9.76.89q147.72,0,295.46,0c15,0,27.55-5.64,37.39-16.82a47,47,0,0,0,11.06-22.67,68.21,68.21,0,0,0,.87-12.8c.07-64.32.05-128.65.05-193.47,16.21-15.93,32.67-32.11,49.55-48.72.14,1.49.33,2.67.33,3.85q0,64,0,128c0,44.33-.12,88.66.09,133a70.68,70.68,0,0,1-5.36,27.74c-8.61,20.65-23,36.14-43.77,45.1-9.19,4-18.67,6.67-28.89,6.67q-128.47-.12-257,0c-26.33,0-52.66-.22-79,.07-13.36.14-25.55-3.59-37.16-9.57-12.3-6.34-22-15.67-29.84-27-5.74-8.3-8.88-17.7-11.91-27.16-.39-1.22-.09-2.64-.27-3.95-.07-.49-.61-.91-.94-1.36Z"/><path class="cls-1" d="M389.6,46.32l79.54,78.46c-.69.83-1.35,1.73-2.12,2.52-4.7,4.73-9.29,9.57-14.16,14.12-28.36,26.5-54.78,55-82.86,81.73-25.32,24.12-49.46,49.42-74.83,73.81-1.8-.36-2.76-2.08-4-3.31q-34-33.84-68-67.75c-2.58-2.56-5.4-4.88-8.19-7.39,6.43-6.43,12.75-12.83,19.16-19.14,16-15.76,32.1-31.44,48.09-47.22,12.09-11.94,24-24,36.12-36q33.92-33.54,67.92-67C387.22,48.28,388.25,47.49,389.6,46.32Z"/><path class="cls-1" d="M400.66,34.92l9.1-8.81c4.54-4.38,9.21-8.63,13.56-13.19A30.92,30.92,0,0,1,434.2,5.37c.91-.36,1.78-.8,2.48-1.12,4.81-.44,9.43-.4,13.64,1.88a21.51,21.51,0,0,1,4.82,3.4c16.7,16.29,33.32,32.68,50,49,4.14,4,5.82,8.72,6,14.53.18,7.16-2.4,12.74-7.33,17.59-6.64,6.54-13.2,13.16-19.81,19.73-1,1-2.15,2-3.58,3.26-1.38-1.33-2.56-2.43-3.7-3.57q-14-13.94-27.91-27.87-16.11-16-32.28-32C411.34,45.11,406.05,40.11,400.66,34.92Z"/><path class="cls-1" d="M204.83,228.67l80,78.67c-12.94,4-25.24,7.29-37.51,10.7s-24.35,7-36.54,10.5-24.64,6.91-37.44,10.49a10.82,10.82,0,0,1,0-2.75q7.81-27.61,15.74-55.21c2.64-9.19,5.39-18.35,8.08-27.53q3.44-11.67,6.87-23.34A11.91,11.91,0,0,1,204.83,228.67Z"/></svg>