<svg xmlns="http://www.w3.org/2000/svg" id="Ebene_1" data-name="Ebene 1" viewBox="0 0 512 512">
  <defs />
  <defs />
  <path fill="#0d090a" d="M340.4 219.4c-5.6.7-9.8-1.4-13.2-5.6-2-2.5-4.3-2.9-7.3-1.8-6.7 2.5-13.5 4.6-20.3 6.8-5 1.7-2.2 5.5-2.1 8.4 0 3.5 3 2 4.4 1.5 6.2-3 11.7-.3 17.3 1.6 1.6.5 3 2.5 4 4 1.3 1.8 2 2 3.8.4a22.7 22.7 0 0134.4 2.3c2.8 3.5 4.5 7 4.3 11.6a10.5 10.5 0 002.3 6.2q7.1 9.3 14.8 18.2a12 12 0 013.3 8.5 40.8 40.8 0 001 9.4 4.6 4.6 0 003 3c9 1 12.6 7.8 15.8 14.7 4.8 10.2 9.3 20.5 14 30.8l.7 2.2a12.7 12.7 0 01-2.5-1q-37-23-73.9-46.3c-2.3-1.5-4.1-2.7-7.5-.9-1.8 1-7.3-.6-8.2-2.4-3.5-7.6-9.4-13-15-18.8a11.6 11.6 0 01-3.4-9c.2-3 .9-6.5-2.4-8.6.6-1 1.1-2.2 2-2.8 2-1.3 4.6-3.3 4.4 1.7 0 .6.8 1.2 1.3 1.8.5-.6 1.4-1.1 1.4-1.7.2-2.6.7-4.6 3.9-4.7.4 0 1.2-1 1.2-1.6a3.5 3.5 0 00-1-2.5c-.6-.5-1.8-.5-2.7-.8-5.9-2.2-11.8-4.2-17.5-6.6-2.5-1-4.4-2.5-6 1-1.4 3.3-2.6.5-4-.4a29.3 29.3 0 00-3.4-1.5c-.1 1.7-.7 3.5-.3 5 .6 1.8 2.1 3.4 3.1 5 1.4 2.4 3.1 3.2 5.8 2s5.2-1 6.8 2 1.9 5.9-.8 8.2-5.7 4.7-9.7 2.7c-4-2-6.4.6-8.6 3s-2.3 8-.7 10.3c4.3 5.9 10.3 11.2 12.5 17.8s-.4 14.7.8 21.8c2 12-5 20.4-10.5 29.4-2.2 3.6-4.8 6.8-7.1 10.3-.6 1-1.4 2.7-1 3.3 3.4 4.7 2.1 10 2.2 15a77 77 0 002.8 17.5 34 34 0 01-1 15c-3.9 17.7-4.4 35.7-5.6 53.6-1 15.3-1.4 30.6-2 45.9 0 2-.5 3.1-2.7 3.1-1.1 0-2.3.4-3.4.4-5.6 0-5.6-.3-6-5.8-1-22.1-2-44.2-3.8-66.3-1-13.7-3.6-27.3-5.4-41-.2-1.1-.6-2.5-.2-3.3 4.7-9 3.2-18.5 3.8-28 0-1 0-2.5.6-3.2 2.6-3 1.3-5.4-.7-8.2a620.9 620.9 0 01-15.2-22.8 8.2 8.2 0 01-1-4.2v-29.5a9.6 9.6 0 011.3-5c3.4-5 7-9.8 10.6-14.6 2.4-3.1 3-8.4.6-11.4s-5.1-5-9.5-2.9c-3.5 1.8-6.4-.6-8.9-2.8-2.1-1.8-2.7-4.3-1.4-7.2 1.4-3.1 3.5-4.7 6.6-3.3 3.8 1.8 5.6 0 7.2-2.8.8-1.5 2.2-2.7 2.6-4.3s-.4-3.2-.7-4.9c-1 .5-2.3.8-3 1.6-2 2.4-3.4 2.7-5-.5-.3-.7-2.8-1.2-3.5-.7a50.8 50.8 0 01-20.8 7.8c-.8.1-1.7 1.6-2 2.7-.1.3 1.3 1 1.9 1.8l3 3.9c.5.7.9 1.6 1.3 2.4a13.6 13.6 0 001.6-2.1 22.2 22.2 0 001-3l5.7 3a13.9 13.9 0 00-1.5 2.7c-.6 1.8-1.5 3.8-1.2 5.6 1 6.6-3.4 10.4-7 14.7s-7.4 8.3-10.5 12.9c-2.6 3.8-6.6 5.3-11 3.8-1.3-.5-3.6.2-5 1.1l-72.7 45.5c-1.3.8-2.8 1.5-4.2 2.2l1.8-4.3c3.9-8.8 7.6-17.6 11.7-26.3 2.2-4.4 4.4-9 7.6-12.7 1.9-2.3 5.5-3.3 8.6-4.2 2.8-.8 4-2 4-5a53.8 53.8 0 011-10.4 11.3 11.3 0 012.3-4.8c5-6.4 10.4-12.5 15.4-19a13 13 0 002.5-6.6 21.5 21.5 0 0121.4-20.3c6.5.2 13 .9 17.5 6.7a3 3 0 002.9 0c5.8-7.2 13.1-8.4 21.7-6.2 1.5.5 3.8 2.3 4.7-1.1 1.2-4.5.4-7.7-2.5-8.6-7-2.4-13.9-4.5-20.7-7-2.7-1-4.2-.2-6.1 1.4-2.6 2.2-5.4 5-8.4 5.4-6.7 1-14 1.3-19.6-3.3a23.3 23.3 0 01-9.2-14.3 13 13 0 00-4.7-8.4c-5.6-4.8-10.7-10-16.4-14.7-3.3-2.7-4-5.2-1.8-8.6 2-3.2 1.2-4.9-2.5-5.4-6.8-1-11-4.8-13.4-11.3-2.3-5.8-5.6-11.3-8.3-17a9.3 9.3 0 01-.5-2 12.8 12.8 0 011.8.4c18.3 7.2 37 13.7 54.8 22 6.4 2.9 12.7 6 19.4 8.3 9 3.2 16.4 9.3 23.9 15 .7.7 1.9 1.7 1.7 2.2-1.3 4.6 1.3 8 2.7 11.8 1.2 2.9 0 4-3 3.5-2.4-.4-5-.6-7.4-.8-2-.2-3.5-.2-3.5 2.6 0 2.4.4 3.6 3.2 3.4 5.3-.3 10.4.2 14.4 4.2a38 38 0 014.6 5.7c1.6 2.4 3 2.8 5 .5 4-4.6 7-9.6 7-16 0-2-.6-2.8-2.5-2.5a10.7 10.7 0 01-1.5 0c-8.9 0-13.3-4.3-13-13 .1-1 2.3-2.2 3.6-3.1s2.6-1.5.4-2.8c-6.2-3.6-9.4-9.4-12.5-15.6-3.6-6.9-8.4-13.1-12.4-19.8a51.5 51.5 0 01-4-9.6c-.6-1.6 0-2.8 2-1.6a13.8 13.8 0 012.9 2c10.7 11 21.3 22.3 32.1 33.3 4.5 4.5 9.1 8.7 9.8 15.6.1.8 1 1.5 1.6 2.2a9.3 9.3 0 001-2.6l.4-18.5 2.1-93.4c0-1.5 0-3.4 1-4.2 3.1-3.1 2.9-6.8 3-10.7l1.8-41.4c0-2-.3-3.9 3-3.8 3 0 3.1 1.3 3.2 3.6L273 55c0 1.6 0 3.8.9 4.7 3.3 3.4 3 7.5 3.1 11.6q1.1 52.8 2.4 105.5c0 1.6.8 3.2 1.2 4.8.7-1.5 1.7-2.9 2-4.4.6-4.4 3-7.4 6.1-10.4a2548 2548 0 0030.8-30.8c2-2 3.4-4.4 5.4-6.4.8-.8 2.3-1 3.5-1.5 0 1.2.3 2.6-.2 3.6-2.5 5.2-5 10.4-8 15.5-3.7 6.6-7.5 13.2-11.8 19.5-2.1 3.2-5.4 5.6-8.4 8.2-1.4 1.2-2.3 2.3 0 2.8 4.6 1 4 3.7 3 7-2 7.9-3.7 9.4-12 9.1-3.5 0-4.5.9-4.1 4.4.6 5.9 3.6 10.5 7.5 14.7 2 2 3.4 1 4.3-.8 4-8 10.7-10.6 19-10.1 2.4.1 3.4-.4 3.4-3.2 0-3.3-1.8-3-3.8-2.8-2.7.2-5.3.4-8 .8-2.3.3-3-.7-2.3-2.8 1.2-4.2 4.4-8 2.9-12.8-.1-.4 1-1.2 1.5-1.7 9.7-8 20-15 32.4-17.8a12.2 12.2 0 004.2-1.5c14.5-10 32-13.5 47.7-20.7 4.5-2.1 9.2-3.7 13.8-5.5a10.3 10.3 0 012.2-.3 12.6 12.6 0 01-.6 1.8c-4 7.8-7.8 15.7-11.9 23.4a8.3 8.3 0 01-3.6 3 29.6 29.6 0 01-4.7 1.4c-5.8 1.8-6 2-3.4 7.5 1.2 2.6.8 4-1.3 6a392.7 392.7 0 00-18 16.4 16.2 16.2 0 00-4.1 7c-2.3 8.4-6.6 14.9-15 17.7-2.8 1-5.8 1.1-8.7 1.5zm-147-6.4a17.5 17.5 0 10-17.4-17.7 17.8 17.8 0 0017.3 17.7zM361 195.4a17.5 17.5 0 10-17.4 17.6 17.8 17.8 0 0017.4-17.6zM193.4 266a17.5 17.5 0 10-17.4-17.6 17.8 17.8 0 0017.4 17.6zM361 248.7a17.5 17.5 0 10-17.6 17.3 17.8 17.8 0 0017.6-17.3z" />
  <path d="M193.3 213a17.5 17.5 0 1117.7-17.3 17.8 17.8 0 01-17.7 17.3zM361 195.4a17.5 17.5 0 11-17.6-17.4 17.8 17.8 0 0117.6 17.4zM193.4 266a17.5 17.5 0 1117.6-17.4 17.8 17.8 0 01-17.6 17.4zM361 248.7a17.5 17.5 0 11-17.4-17.7 17.8 17.8 0 0117.4 17.7z" class="cls-2" />
</svg>
